<svg width="46" height="46" viewBox="0 0 46 46" fill="none" xmlns="http://www.w3.org/2000/svg">
<g id="free-icon-font-gift-5527871 1" clip-path="url(#clip0_40_1210)">
<path id="Vector" d="M40.25 13.4167H34.2432C35.5716 12.2055 36.6243 10.723 37.33 9.0696C38.0356 7.4162 38.3778 5.63048 38.3333 3.83333H34.5C34.5 9.35525 30.7222 12.0884 26.542 13.0333C27.7972 10.7943 28.5506 8.30911 28.75 5.75C28.75 4.22501 28.1442 2.76247 27.0659 1.68414C25.9875 0.605802 24.525 0 23 0C21.475 0 20.0125 0.605802 18.9341 1.68414C17.8558 2.76247 17.25 4.22501 17.25 5.75C17.4494 8.30911 18.2028 10.7943 19.458 13.0333C15.2778 12.0884 11.5 9.35525 11.5 3.83333H7.66667C7.62219 5.63048 7.96437 7.4162 8.67004 9.0696C9.37571 10.723 10.4284 12.2055 11.7568 13.4167H5.75C4.22501 13.4167 2.76247 14.0225 1.68414 15.1008C0.605802 16.1791 0 17.6417 0 19.1667L0 26.8333H3.83333V46H42.1667V26.8333H46V19.1667C46 17.6417 45.3942 16.1791 44.3159 15.1008C43.2375 14.0225 41.775 13.4167 40.25 13.4167ZM23 3.83333C23.5083 3.83333 23.9958 4.03527 24.3553 4.39471C24.7147 4.75416 24.9167 5.24167 24.9167 5.75C24.6853 7.78709 24.0326 9.75374 23 11.5249C21.9674 9.75374 21.3147 7.78709 21.0833 5.75C21.0833 5.24167 21.2853 4.75416 21.6447 4.39471C22.0042 4.03527 22.4917 3.83333 23 3.83333ZM3.83333 19.1667C3.83333 18.6583 4.03527 18.1708 4.39471 17.8114C4.75416 17.4519 5.24167 17.25 5.75 17.25H21.0833V23H3.83333V19.1667ZM7.66667 26.8333H21.0833V42.1667H7.66667V26.8333ZM38.3333 42.1667H24.9167V26.8333H38.3333V42.1667ZM42.1667 23H24.9167V17.25H40.25C40.7583 17.25 41.2458 17.4519 41.6053 17.8114C41.9647 18.1708 42.1667 18.6583 42.1667 19.1667V23Z" fill="#8E7FBD"/>
</g>
<defs>
<clipPath id="clip0_40_1210">
<rect width="46" height="46" fill="white"/>
</clipPath>
</defs>
</svg>
