<svg width="14" height="12" viewBox="0 0 14 12" fill="none" xmlns="http://www.w3.org/2000/svg">
<path id="Vector" d="M12.9205 1.06083C12.5784 0.724494 12.1722 0.457691 11.7252 0.275661C11.2782 0.0936304 10.799 -6.10352e-05 10.3151 -6.10352e-05C9.83123 -6.10352e-05 9.35208 0.0936304 8.90504 0.275661C8.45801 0.457691 8.05185 0.724494 7.70976 1.06083L6.99982 1.75851L6.28988 1.06083C5.5989 0.381777 4.66172 0.00029094 3.68453 0.000290947C2.70733 0.000290954 1.77016 0.381777 1.07917 1.06083C0.38819 1.73988 7.28068e-09 2.66086 0 3.62118C-7.28068e-09 4.5815 0.38819 5.50249 1.07917 6.18154L1.78911 6.87922L6.99982 11.9999L12.2105 6.87922L12.9205 6.18154C13.2627 5.84537 13.5342 5.44622 13.7194 5.00691C13.9047 4.56759 14 4.09672 14 3.62118C14 3.14565 13.9047 2.67478 13.7194 2.23546C13.5342 1.79615 13.2627 1.397 12.9205 1.06083Z" fill="#835CC1"/>
</svg>
