<svg width="10" height="14" viewBox="0 0 10 14" fill="none" xmlns="http://www.w3.org/2000/svg">
<g id="Group">
<path id="Vector" d="M2.16622 3.48039C2.16622 5.14698 3.45487 6.46079 4.99955 6.46079C6.54423 6.46079 7.83289 5.14698 7.83289 3.48039C7.83289 1.8138 6.54423 0.5 4.99955 0.5C3.45487 0.5 2.16622 1.8138 2.16622 3.48039Z" stroke="#333333"/>
<g id="Vector_2">
<mask id="path-2-inside-1_72_891" fill="white">
<path d="M5 8.12085C7.76016 8.12406 9.99693 10.4595 10 13.3414C10 13.6618 9.75128 13.9215 9.44445 13.9215H0.555571C0.248748 13.9215 2.38419e-05 13.6618 2.38419e-05 13.3414C0.00307083 10.4595 2.23984 8.12403 5 8.12085Z"/>
</mask>
<path d="M5 8.12085L4.99885 7.12085L5.00116 7.12085L5 8.12085ZM10 13.3414L11 13.3404V13.3414H10ZM2.38419e-05 13.3414H-0.999977L-0.999976 13.3404L2.38419e-05 13.3414ZM5.00116 7.12085C8.35285 7.12475 10.9964 9.94802 11 13.3404L9 13.3425C8.99747 10.971 7.16746 9.12337 4.99884 9.12085L5.00116 7.12085ZM11 13.3414C11 14.173 10.3438 14.9215 9.44445 14.9215V12.9215C9.15874 12.9215 9 13.1506 9 13.3414H11ZM9.44445 14.9215H0.555571V12.9215H9.44445V14.9215ZM0.555571 14.9215C-0.343785 14.9215 -0.999976 14.173 -0.999976 13.3414H1.00002C1.00002 13.1506 0.841281 12.9215 0.555571 12.9215V14.9215ZM-0.999976 13.3404C-0.996389 9.94803 1.64715 7.12471 4.99885 7.12085L5.00115 9.12085C2.83254 9.12335 1.00253 10.971 1.00002 13.3425L-0.999976 13.3404Z" fill="#333333" mask="url(#path-2-inside-1_72_891)"/>
</g>
</g>
</svg>
