<svg width="16" height="14" viewBox="0 0 16 14" fill="none" xmlns="http://www.w3.org/2000/svg">
<path id="Vector" d="M16 6.61112C16.003 7.63769 15.7289 8.65036 15.2 9.56667C14.5728 10.6647 13.6086 11.5882 12.4155 12.2339C11.2223 12.8795 9.84731 13.2217 8.44443 13.2222C7.27122 13.2249 6.11387 12.9851 5.06666 12.5222L0 14L1.68889 9.56667C1.15994 8.65036 0.885829 7.63769 0.888887 6.61112C0.88943 5.3836 1.28054 4.18046 2.01841 3.13644C2.75629 2.09243 3.81178 1.24879 5.06666 0.700021C6.11387 0.237191 7.27122 -0.00265437 8.44443 2.21574e-05H8.88888C10.7416 0.0894601 12.4916 0.773724 13.8037 1.9218C15.1157 3.06987 15.8978 4.60108 16 6.22223V6.61112Z" fill="black"/>
</svg>
