<svg width="21" height="21" viewBox="0 0 21 21" fill="none" xmlns="http://www.w3.org/2000/svg">
<g id="ph:pencil" opacity="0.5">
<path id="Vector" d="M18.5705 6.64297L15.1087 3.18042C14.9936 3.06528 14.8569 2.97394 14.7065 2.91162C14.5561 2.8493 14.3949 2.81723 14.232 2.81723C14.0692 2.81723 13.908 2.8493 13.7576 2.91162C13.6071 2.97394 13.4705 3.06528 13.3554 3.18042L3.80137 12.7352C3.68576 12.8499 3.59409 12.9864 3.53171 13.1368C3.46933 13.2873 3.43747 13.4486 3.43799 13.6115V17.074C3.43799 17.4028 3.5686 17.7181 3.80109 17.9506C4.03357 18.1831 4.34888 18.3137 4.67766 18.3137H8.14022C8.30307 18.3142 8.46441 18.2823 8.61484 18.22C8.76528 18.1576 8.90181 18.0659 9.01651 17.9503L18.5705 8.39633C18.6856 8.28121 18.777 8.14454 18.8393 7.99412C18.9016 7.84369 18.9337 7.68247 18.9337 7.51965C18.9337 7.35683 18.9016 7.19561 18.8393 7.04518C18.777 6.89476 18.6856 6.75809 18.5705 6.64297ZM4.93412 13.355L11.4958 6.79328L12.789 8.08641L6.22725 14.6474L4.93412 13.355ZM4.67766 14.8511L6.90055 17.074H4.67766V14.8511ZM8.39668 16.8176L7.10354 15.5244L13.6653 8.9627L14.9584 10.2558L8.39668 16.8176ZM15.8347 9.37954L12.3721 5.91699L14.2316 4.05749L17.6942 7.51926L15.8347 9.37954Z" fill="#353538"/>
</g>
</svg>
