<svg width="21" height="21" viewBox="0 0 21 21" fill="none" xmlns="http://www.w3.org/2000/svg">
<g id="ph:pencil" opacity="0.5">
<path id="Vector" d="M18.5704 6.643L15.1086 3.18045C14.9935 3.06531 14.8568 2.97397 14.7064 2.91165C14.556 2.84934 14.3947 2.81726 14.2319 2.81726C14.0691 2.81726 13.9079 2.84934 13.7574 2.91165C13.607 2.97397 13.4704 3.06531 13.3552 3.18045L3.80125 12.7352C3.68564 12.8499 3.59397 12.9864 3.53159 13.1369C3.46921 13.2873 3.43735 13.4486 3.43787 13.6115V17.074C3.43787 17.4028 3.56848 17.7181 3.80096 17.9506C4.03345 18.1831 4.34876 18.3137 4.67754 18.3137H8.1401C8.30295 18.3142 8.46429 18.2824 8.61472 18.22C8.76516 18.1576 8.90169 18.0659 9.01639 17.9503L18.5704 8.39636C18.6855 8.28124 18.7769 8.14457 18.8392 7.99415C18.9015 7.84372 18.9336 7.6825 18.9336 7.51968C18.9336 7.35686 18.9015 7.19564 18.8392 7.04521C18.7769 6.89479 18.6855 6.75812 18.5704 6.643ZM4.934 13.355L11.4957 6.79331L12.7889 8.08644L6.22713 14.6474L4.934 13.355ZM4.67754 14.8512L6.90043 17.074H4.67754V14.8512ZM8.39655 16.8176L7.10342 15.5245L13.6651 8.96273L14.9583 10.2559L8.39655 16.8176ZM15.8346 9.37957L12.372 5.91702L14.2315 4.05752L17.6941 7.51929L15.8346 9.37957Z" fill="#353538"/>
</g>
</svg>
